<svg width="1200" height="675" viewBox="0 0 1200 675" xmlns="http://www.w3.org/2000/svg">
<defs>
<linearGradient id="bodyGrad" x1="0" y1="0" x2="0" y2="1">
<stop offset="0%" stop-color="#E8473A"/>
<stop offset="45%" stop-color="#C73326"/>
<stop offset="100%" stop-color="#8E1F16"/>
</linearGradient>
<linearGradient id="glass" x1="0" y1="0" x2="0" y2="1">
<stop offset="0%" stop-color="#DCEFF7"/>
<stop offset="100%" stop-color="#9FC8DC"/>
</linearGradient>
<linearGradient id="wheelGrad" x1="0" y1="0" x2="1" y2="1">
<stop offset="0%" stop-color="#3A3A3A"/>
<stop offset="100%" stop-color="#161616"/>
</linearGradient>
<radialGradient id="hlight" cx="50%" cy="30%" r="70%">
<stop offset="0%" stop-color="#FFFFFF" stop-opacity="0.55"/>
<stop offset="100%" stop-color="#FFFFFF" stop-opacity="0"/>
</radialGradient>
<linearGradient id="bgTop" x1="0" y1="0" x2="0" y2="1">
<stop offset="0%" stop-color="#0F2A52"/>
<stop offset="100%" stop-color="#163E73"/>
</linearGradient>
</defs>

<rect x="0" y="0" width="1200" height="675" fill="url(#bgTop)"/>

<text x="600" y="64" text-anchor="middle" font-family="'Segoe UI',Arial,sans-serif" font-size="30" font-weight="700" fill="#FFFFFF">Resources are not a solution</text>
<text x="600" y="96" text-anchor="middle" font-family="'Segoe UI',Arial,sans-serif" font-size="16" fill="#A9C6E8">Architecture governance is what turns parts into a working system</text>

<rect x="40" y="130" width="540" height="430" rx="20" fill="#EAF6FA"/>
<rect x="620" y="130" width="540" height="430" rx="20" fill="#FBF6EB"/>
<rect x="40" y="470" width="540" height="90" fill="#D7E9D2"/>
<rect x="620" y="470" width="540" height="90" fill="#E8DCC4"/>
<path d="M40 540 L580 540 L580 560 Q580 560 580 560 L40 560 Q40 560 40 560 Z" fill="#D7E9D2"/>

<clipPath id="clipL"><rect x="40" y="130" width="540" height="430" rx="20"/></clipPath>
<clipPath id="clipR"><rect x="620" y="130" width="540" height="430" rx="20"/></clipPath>

<g clip-path="url(#clipL)">
<rect x="40" y="470" width="540" height="90" fill="#D7E9D2"/>
</g>
<g clip-path="url(#clipR)">
<rect x="620" y="470" width="540" height="90" fill="#E8DCC4"/>
</g>

<g transform="translate(150,180) scale(1.55)">
<ellipse cx="168" cy="320" rx="118" ry="9" fill="#000" opacity="0.14"/>
<path d="M56 292 L56 262 Q56 250 66 244 L86 232 Q96 208 122 196 Q145 186 168 186 Q193 186 214 198 Q236 210 244 232 L260 242 Q278 248 278 264 L278 292 Q278 300 270 300 L256 300 L256 292 L80 292 L80 300 L66 300 Q56 300 56 292 Z" fill="url(#bodyGrad)" stroke="#6B1410" stroke-width="1.5"/>
<path d="M56 292 L56 262 Q56 250 66 244 L86 232 Q96 208 122 196 Q145 186 168 186 Q193 186 214 198 Q236 210 244 232 L260 242 Q278 248 278 264 L278 292" fill="url(#hlight)" opacity="0.7"/>
<path d="M118 228 Q126 208 145 200 Q168 193 168 193 Q168 193 191 200 Q210 208 218 228 Z" fill="url(#glass)" stroke="#5C8FA8" stroke-width="1"/>
<line x1="168" y1="195" x2="168" y2="228" stroke="#5C8FA8" stroke-width="1"/>
<circle cx="168" cy="215" r="10" fill="none" stroke="#3a3a3a" stroke-width="2" opacity="0.85"/>
<line x1="168" y1="206" x2="168" y2="224" stroke="#3a3a3a" stroke-width="1.4" opacity="0.85"/>
<line x1="159" y1="215" x2="177" y2="215" stroke="#3a3a3a" stroke-width="1.4" opacity="0.85"/>
<rect x="60" y="272" width="216" height="7" rx="3.5" fill="#F4A93C"/>
<rect x="252" y="256" width="6" height="10" rx="2" fill="#FCEFA8"/>
<rect x="62" y="256" width="6" height="10" rx="2" fill="#FCEFA8"/>
<circle cx="100" cy="300" r="24" fill="url(#wheelGrad)"/>
<circle cx="100" cy="300" r="11" fill="#D8D8D8"/>
<circle cx="100" cy="300" r="4" fill="#8a8a8a"/>
<circle cx="236" cy="300" r="24" fill="url(#wheelGrad)"/>
<circle cx="236" cy="300" r="11" fill="#D8D8D8"/>
<circle cx="236" cy="300" r="4" fill="#8a8a8a"/>
</g>

<text x="310" y="512" text-anchor="middle" font-family="'Segoe UI',Arial,sans-serif" font-size="22" font-weight="700" fill="#1f7a4c">Governed build</text>
<text x="310" y="538" text-anchor="middle" font-family="'Segoe UI',Arial,sans-serif" font-size="15" fill="#3f8f63">Same parts, assembled in the right order</text>

<g transform="translate(540,190) scale(1.55)">
<ellipse cx="168" cy="320" rx="118" ry="9" fill="#000" opacity="0.10"/>

<g transform="rotate(-7 0 0)">
<path d="M70 295 L70 245 Q70 233 82 227 L110 213 Q130 193 160 183 Q192 173 222 183 L222 235 Q222 245 212 251 L140 285 Q102 299 80 295 Z" fill="url(#bodyGrad)" stroke="#6B1410" stroke-width="1.5"/>
<path d="M110 213 Q118 195 140 187 L160 183 L160 215 Z" fill="url(#glass)" stroke="#5C8FA8" stroke-width="1"/>
</g>

<g transform="rotate(5 0 0)">
<circle cx="65" cy="190" r="20" fill="url(#wheelGrad)"/>
<circle cx="65" cy="190" r="9" fill="#D8D8D8"/>
<circle cx="65" cy="190" r="3" fill="#8a8a8a"/>
</g>
<g transform="rotate(-9 0 0)">
<circle cx="246" cy="195" r="20" fill="url(#wheelGrad)"/>
<circle cx="246" cy="195" r="9" fill="#D8D8D8"/>
<circle cx="246" cy="195" r="3" fill="#8a8a8a"/>
</g>
<g transform="rotate(8 0 0)">
<circle cx="100" cy="345" r="20" fill="url(#wheelGrad)"/>
<circle cx="100" cy="345" r="9" fill="#D8D8D8"/>
<circle cx="100" cy="345" r="3" fill="#8a8a8a"/>
</g>
<g transform="rotate(-6 0 0)">
<circle cx="232" cy="348" r="20" fill="url(#wheelGrad)"/>
<circle cx="232" cy="348" r="9" fill="#D8D8D8"/>
<circle cx="232" cy="348" r="3" fill="#8a8a8a"/>
</g>

<g transform="rotate(12 188 240)">
<circle cx="188" cy="240" r="14" fill="none" stroke="#3a3a3a" stroke-width="3"/>
<line x1="188" y1="229" x2="188" y2="251" stroke="#3a3a3a" stroke-width="2"/>
<line x1="177" y1="240" x2="199" y2="240" stroke="#3a3a3a" stroke-width="2"/>
<circle cx="188" cy="240" r="3" fill="#3a3a3a"/>
</g>

<g transform="rotate(-10 118 320)">
<rect x="104" y="310" width="32" height="20" rx="2" fill="#F4A93C"/>
</g>
<g transform="rotate(15 58 270)">
<rect x="46" y="260" width="6" height="10" rx="2" fill="#FCEFA8"/>
</g>
</g>

<text x="890" y="512" text-anchor="middle" font-family="'Segoe UI',Arial,sans-serif" font-size="22" font-weight="700" fill="#854F0B">Resources present</text>
<text x="890" y="538" text-anchor="middle" font-family="'Segoe UI',Arial,sans-serif" font-size="15" fill="#a0731c">All the parts, no plan for how they fit</text>

<text x="600" y="612" text-anchor="middle" font-family="'Segoe UI',Arial,sans-serif" font-size="14" fill="#A9C6E8">Architecture Governance &amp; PMO Discipline</text>
<text x="600" y="640" text-anchor="middle" font-family="'Segoe UI',Arial,sans-serif" font-size="20" font-weight="700" fill="#FFFFFF">JUA Solution LLC</text>
</svg>
